<svg width="552" height="412" viewBox="0 0 552 412" fill="none" xmlns="http://www.w3.org/2000/svg">
<path d="M41.6339 377.738C54.0623 400.787 80.4399 410.681 80.4399 410.681C80.4399 410.681 86.667 383.206 74.2386 360.157C61.8102 337.108 35.4326 327.213 35.4326 327.213C35.4326 327.213 29.2055 354.689 41.6339 377.738Z" fill="black"/>
<path d="M50.1765 370.155C72.6149 383.655 81.2567 410.469 81.2567 410.469C81.2567 410.469 53.5186 415.396 31.0802 401.896C8.64174 388.396 0 361.582 0 361.582C0 361.582 27.7381 356.655 50.1765 370.155Z" fill="#EEBB39"/>
<path d="M362.06 367.184H125.274V365.481H360.356V282.861H145.18L134.727 261.084L136.263 260.347L146.252 281.157H362.06V367.184Z" fill="black"/>
<path d="M156.788 408.92C166.667 408.92 174.675 400.912 174.675 391.033C174.675 381.155 166.667 373.146 156.788 373.146C146.91 373.146 138.902 381.155 138.902 391.033C138.902 400.912 146.91 408.92 156.788 408.92Z" fill="black"/>
<path d="M333.101 408.92C342.979 408.92 350.987 400.912 350.987 391.033C350.987 381.155 342.979 373.146 333.101 373.146C323.222 373.146 315.214 381.155 315.214 391.033C315.214 400.912 323.222 408.92 333.101 408.92Z" fill="black"/>
<path d="M540.927 22.2256C547.043 22.2256 552 17.2681 552 11.1528C552 5.03753 547.043 0.0800781 540.927 0.0800781C534.812 0.0800781 529.854 5.03753 529.854 11.1528C529.854 17.2681 534.812 22.2256 540.927 22.2256Z" fill="black"/>
<path d="M387.385 254.753H121.237L63.6484 66.5166H446.693L446.344 67.6241L387.385 254.753ZM122.497 253.05H386.136L444.37 68.2201H65.9508L122.497 253.05Z" fill="black"/>
<path d="M451.465 49.7L449.818 49.263L461.059 6.89404H526.448V8.59802H462.37L451.465 49.7Z" fill="black"/>
<path d="M427.552 123.584H82.2583V125.287H427.552V123.584Z" fill="black"/>
<path d="M407.778 186.344H101.459V188.047H407.778V186.344Z" fill="black"/>
<path d="M256.017 67.3687H254.314V253.902H256.017V67.3687Z" fill="black"/>
<path d="M332.286 67.3149L320.057 253.843L321.758 253.955L333.986 67.4264L332.286 67.3149Z" fill="black"/>
<path d="M178.081 67.313L176.38 67.4238L188.538 253.957L190.238 253.846L178.081 67.313Z" fill="black"/>
</svg>
